<svg xmlns="http://www.w3.org/2000/svg" width="900" height="600" viewBox="0 0 900 600" role="img" aria-label="Map route illustration placeholder">
  <rect width="900" height="600" fill="#eef7ff"/>
  <path d="M0 110 H900 M0 230 H900 M0 350 H900 M0 470 H900 M135 0 V600 M300 0 V600 M465 0 V600 M630 0 V600 M795 0 V600" stroke="#b8ddff" stroke-width="4" opacity=".6"/>
  <path d="M85 505 C195 410 245 355 355 365 C472 376 505 250 620 235 C722 222 760 150 826 92" fill="none" stroke="#0d6fc2" stroke-width="18" stroke-linecap="round"/>
  <path d="M85 505 C195 410 245 355 355 365 C472 376 505 250 620 235 C722 222 760 150 826 92" fill="none" stroke="#ffb52e" stroke-width="6" stroke-dasharray="20 18" stroke-linecap="round"/>
  <circle cx="85" cy="505" r="28" fill="#20a96b"/>
  <circle cx="826" cy="92" r="28" fill="#f59c13"/>
  <circle cx="505" cy="250" r="16" fill="#0f2742"/>
</svg>
